<svg xmlns="http://www.w3.org/2000/svg" width="1267" height="560" viewBox="0 0 1267 560"><defs><clipPath id="a"><path data-name="Rectangle 73" transform="translate(67 486)" fill="#fff" stroke="#707070" d="M0 0h1267v560H0z"/></clipPath></defs><g data-name="Mask Group 5" transform="translate(-67 -486)" clip-path="url(#a)"><g data-name="Group 217" opacity=".146"><path data-name="Path 752" d="M579.773 204.948c-15.621 48.478-44.635 87.954-81.052 122.934-37.107 35.643-71.352 73.983-88.172 123.81-12.65 37.476-22.691 75.83-33.835 113.812-16.258 55.42-44.566 103.788-86.037 144.035-28.299 27.461-61.898 46.74-99.341 58.988-42.165 13.792-85.175 22.04-129.864 22.734-36.601.57-66.131-12.93-92.57-36.752-19.758-17.807-39.55-35.806-61-51.427-23.26-16.94-49.344-28.595-79.5-25.543-28.128 2.845-49.041 17.16-54.657 45.33-7.675 38.532-16.402 76.86-24.931 115.217-4.278 19.237-14.528 35.494-26.353 50.98-14.395 18.852-34.565 23.792-56.449 23.028-27.359-.953-53.098-9.355-78.25-19.702-28.318-11.649-56.973-22.51-85.043-34.722-31.243-13.593-60.693-7.427-89.284 6.901-30.52 15.294-56.352 37.195-82.277 59.22-19.413 16.493-41.375 29.715-58.461 49.34-13.284 15.26-21.833 32.4-23.961 51.7-2.977 27 12 45.957 34.007 58.94 11.13 6.566 23.915 10.527 36.24 14.846 38.628 13.533 77.566 26.2 116.054 40.11 35.672 12.89 71.716 16.254 108.91 8.365 25.912-5.49 51.92-10.52 77.92-15.58 30.311-5.9 55.89 4.128 76.576 25.567 26.74 27.715 51.518 57.205 71.151 90.584 10.887 18.51 24.144 36.183 31.604 56.014 10.577 28.12 4.868 56.922-6.382 84.387-10.288 25.108-22.29 49.667-30.506 75.43-6.423 20.136-5.631 40.979.783 62.457 9.298 31.137 53.816 61.514 84.189 58.903 28.047-2.41 50.435-14.244 72.447-30.857 35.148-26.522 62.684-60.312 92.921-91.523 30.933-31.93 44.845-70.612 43.933-115.034-.606-29.46-.807-58.977.272-88.415.922-25.18 6.747-49.125 20.582-71.202 20.759-33.123 39.313-67.626 60.07-100.754 12.954-20.673 29.74-38.862 51.023-51.13 44.289-25.533 85.223-16.212 116.953 25.15 16.483 21.488 32.438 43.415 49.702 64.258 29.467 35.573 67.947 49.166 112.934 39.85 38.285-7.93 75.955-18.815 113.947-28.19 34.428-8.495 68.965-14.748 104.797-9.565 28.376 4.104 48.988 20.613 51.32 46.397 1.574 17.393-5.359 33.232-12.031 48.82q-17.753 41.495-36.063 82.752c-1.091 2.466-3.656 4.283-5.54 6.404" fill="none" stroke="#1d110c" stroke-linecap="round" stroke-linejoin="round" stroke-width="4.119"/><g data-name="Group 126"><g data-name="Group 125" fill="none" stroke="#1d110c" stroke-linecap="round" stroke-linejoin="round" stroke-width="4.119"><path data-name="Path 753" d="M609.366 256.205q-1.362 3.281-2.83 6.483"/><path data-name="Path 754" d="M601.13 276.917c-17.46 31.942-42.723 57.758-71.006 80.794-52.391 42.67-89.436 94.785-104.27 161.352-4.56 20.461-7.517 41.317-12.906 61.545-9.257 34.742-26.16 65.711-47.6 94.754-20.821 28.204-44.39 53.729-72.811 73.596-25.37 17.733-52.905 32.603-82.804 42.38-49.724 16.26-100.619 25.401-152.882 25.972-39.061.427-72.426-14.953-103.088-38.069-23.21-17.496-46.44-35.295-71.418-49.98-12.302-7.23-28.502-10.209-43.093-10.685-23.888-.775-40.76 12.203-47.668 34.967-6.438 21.213-10.287 43.192-15.812 64.698-7.597 29.573-17.391 58.148-33.236 84.765-15.537 26.102-38.21 37.741-66.891 34.665-21.912-2.353-43.701-8.371-64.805-15.074-35.446-11.255-69.929-25.592-105.518-36.327-36.833-11.109-69.895-1.075-100.737 21.719a189.606 189.606 0 0 0-57.35 67.654c-13.6 26.646-7.82 42.75 13.525 60.393 27.688 22.885 56.496 44.526 85.801 65.33 31.897 22.647 68.433 25.427 105.93 19.517 23.968-3.776 47.602-9.896 71.635-13 33.247-4.294 62.142 6.254 83.728 32.117 23.783 28.495 47.557 57.172 68.85 87.513a473.721 473.721 0 0 1 43.505 75.63c10.46 23.014 7.738 48.383-1.324 72.059-8.009 20.928-17.667 41.23-26.273 61.94-7.54 18.14-12.297 36.415-13.017 56.732-1.42 40.08 42.92 72.508 81.625 64.67 25.343-5.133 46.424-19.962 65.987-36.328 31.446-26.307 58.57-56.817 84.03-88.806 21.356-26.833 24.614-58.367 23.707-91.168-1.083-39.349-5.76-78.658-.027-118.11 3.905-26.85 12.21-51.437 26.82-74.694 25.288-40.255 50.962-80.163 82.833-115.56 26.037-28.918 58.252-47.969 97.554-51.63 42.916-3.994 74.71 15.89 100.163 48.991 15.79 20.535 32.254 40.708 50.014 59.538 27.761 29.432 63.5 37.106 101.451 27.823 34.725-8.495 68.196-21.994 102.577-32.062 46.99-13.762 93.924-28.975 143.61-28.633 57.44.396 82.011 51.275 62.913 96.27-16.472 38.806-38.916 75.112-59.15 112.291a81.1 81.1 0 0 1-6.6 9.97" stroke-dasharray="24.936 24.936"/><path data-name="Path 755" d="M732.218 1282.325c-1.46 1.857-2.911 3.718-4.3 5.612"/></g></g><path data-name="Path 756" d="M638.043 303.26c-16.623 25.525-34.855 49.808-57.48 70.367-18.978 17.24-38.865 33.483-57.848 50.72-35.69 32.393-53.087 74.138-61.193 120.652-8.776 50.356-19.51 100.087-51.898 141.91-21.62 27.918-44.746 54.412-72.802 76.158-12.157 9.423-23.993 19.5-37.101 27.414-35.878 21.659-75.134 34.775-116.433 40.848-33.428 4.914-67.063 8.855-100.736 11.543-50.097 3.998-95.554-11.282-137.997-36.678-17.917-10.722-35.141-22.666-53.461-32.623-10.225-5.56-21.906-8.659-33.182-12.03-16.964-5.071-41.618 8.164-47.762 24.619-8.667 23.212-15.081 47.253-23.372 70.619-7.899 22.264-14.934 45.212-26.084 65.848-11.596 21.458-28.382 39.29-54.05 46.03-17.121 4.496-33.787 3.041-49.607-2.852-31.46-11.722-62.08-25.704-93.595-37.265-28.084-10.305-56.832-20.728-87.507-11.678-36.655 10.815-64.086 38.582-61.563 75.993 1.415 20.967 15.459 37.505 26.754 54.26 6.876 10.2 16.575 18.824 26.107 26.844 28.117 23.651 61.478 25.935 95.879 20.666 22.028-3.37 43.788-8.52 65.673-12.85 38.646-7.648 65.874 10.42 88.03 39.313 26.14 34.09 52.2 68.244 77.89 102.673 12.381 16.594 24.826 33.283 35.503 50.977 21.79 36.106 23.33 74.482 7.991 113.335-9.423 23.878-20.717 47.02-30.553 70.75-5.935 14.32-7.548 29.327-1.067 44.017 10.805 24.515 38.518 32.172 63.585 24.027 33.012-10.728 56.567-34.544 80.226-57.75a329.712 329.712 0 0 0 40.53-48.275c14.664-21.326 19.199-45.964 17.978-72.014-1.91-40.708-4.112-81.502-3.393-122.213.743-42.04 15.524-79.027 43.837-111.702 24.962-28.809 45.982-61.032 68.648-91.816 28.329-38.476 65.15-66.44 110.038-81.552 36.978-12.449 73.203-5.734 107.678 13.186 24.555 13.475 41.53 34.64 60.25 54.034 33.37 34.57 71.56 51.985 120.14 37.846 19.15-5.574 38.509-10.441 57.58-16.27 46.706-14.272 93.232-29.136 139.96-43.337 33.871-10.293 68.61-13.142 103.365-6.657 23.463 4.377 44.369 16.47 56.67 36.955 12.071 20.109 13.057 43.577 8.113 66.78-5.203 24.413-16.42 46.2-29.855 66.945-18.348 28.33-36.39 56.88-55.634 84.597-5.444 7.841-5.942 19.919-17.656 23.018" fill="none" stroke="#1d110c" stroke-linecap="round" stroke-linejoin="round" stroke-width="6"/><path data-name="Path 757" d="M678.85 376.556c-22.55 35.697-53.161 64.038-84.176 92.14-26.701 24.192-49.71 51.217-58.238 87.395-5.916 25.106-11.27 50.337-16.846 75.52-12.232 55.24-39.946 102.489-75.867 145.716-12.701 15.284-24.028 31.694-36.023 47.56-21.902 28.976-16.068 56.82 4.31 82.768a566.1 566.1 0 0 0 48.13 54.447c21.007 20.627 47.945 28.295 77.282 27.256 46.821-1.655 91.319-14.353 135.108-30.085q55.625-19.984 111.144-40.266c13.652-5.005 26.96-10.972 40.657-15.836 29.266-10.392 56.17-3.767 80.072 13.667 19.452 14.188 36.587 31.248 47.566 53.2 18.884 37.758 22.39 75.805-3.137 112.316-21.766 31.132-45.11 61.173-67.734 91.714-9.627 12.998-19.037 26.159-28.895 38.981-2.653 3.451-6.581 5.935-9.924 8.863" fill="none" stroke="#1d110c" stroke-linecap="round" stroke-linejoin="round" stroke-width="4.119"/><g data-name="Group 128"><g data-name="Group 127" fill="none" stroke="#1d110c" stroke-linecap="round" stroke-linejoin="round" stroke-width="4.119"><path data-name="Path 758" d="M704.768 421.446q-2.229 2.74-4.47 5.478"/><path data-name="Path 759" d="M691.302 437.903c-24.803 30.207-49.814 60.256-73.8 91.093-16.975 21.825-25.194 47.529-29.59 74.935-8.876 55.337-29.749 106.162-60.285 153.66-18.191 28.294-36.301 57.24-40.877 91.919-5.258 39.844 22.812 80.143 65.642 85.23 45.33 5.383 88.154-3.982 130.595-17.556 35.194-11.257 69.305-25.36 100.295-45.896 15.321-10.152 29.999-21.27 45.038-31.851 24.593-17.302 65.49-15.548 91.408 4.084 25.445 19.272 44.189 44.446 63.39 69.558 16.098 21.052 25.761 44.266 33.455 69.075 12.207 39.36 2.493 74.348-22.482 105.399-22.504 27.979-46.87 54.491-70.696 81.403a88.023 88.023 0 0 1-7.056 6.996" stroke-dasharray="25.09 25.09"/><path data-name="Path 760" d="M911.003 1180.628c-1.786 1.542-3.568 3.087-5.305 4.673"/></g></g><path data-name="Path 761" d="M716.943 442.534c-15.146 21.713-30.578 43.237-45.366 65.187-18.307 27.177-28.005 57.97-30.736 89.822-3.52 41.033-22.271 74.987-43.447 108.613-17.439 27.691-34.675 55.425-43.3 87.573-4.508 16.792-4.138 33.104 1.581 48.739 4.583 12.538 15.871 19.635 28.486 23.864 28.407 9.522 56.777 4.556 84.565-2.696 35.149-9.173 67.37-24.541 91.723-52.777 10.98-12.73 21.34-25.998 31.74-39.21 25.032-31.807 44.137-37.883 78.82-23.013 10.834 4.645 21.638 9.37 32.313 14.355 1.18.55 1.418 3.068 2.093 4.674" fill="none" stroke="#1d110c" stroke-linecap="round" stroke-linejoin="round" stroke-width="6"/><path data-name="Path 762" d="M739.813 482.146c-13.257 21.362-23.513 44.04-28.153 68.725-5.24 27.872-.036 54.048 16.042 77.417 9.592 13.942 25.244 17.31 40.699 18.173 29.97 1.675 55.976 14.634 82.633 25.961 1.16.494 1.413 3.07 2.088 4.675" fill="none" stroke="#1d110c" stroke-linecap="round" stroke-linejoin="round" stroke-width="4.119"/><path data-name="Path 763" d="M1061.947 1042.715c-10.68 30.612-31.435 55.171-50.043 80.95-2.784 3.858-8.816 5.404-13.346 8.02" fill="none" stroke="#1d110c" stroke-linecap="round" stroke-linejoin="round" stroke-width="4.119"/><path data-name="Path 764" d="M-516.634 961.668c-20.02 23.323-18.63 47.607.13 71.826 14.254 18.395 30.98 28.745 54.131 30.117 20.524 1.215 40.057-2.2 58.367-11.487a346.8 346.8 0 0 0 31.687-18.318c9.601-6.224 10.229-13.545 5.894-24.162-8.171-20.012-26.635-28.883-43.02-39.269-12.619-8.001-27.388-13.035-41.72-17.924-22.5-7.68-44.384-6.076-64.338 8.564" fill="none" stroke="#1d110c" stroke-linecap="round" stroke-linejoin="round" stroke-width="4.119"/><path data-name="Path 765" d="M-155.62 823.544c-16.879 17.597-23.049 40.4-30.245 62.482-12.565 38.56-30.886 73.604-60.519 102.038-10.903 10.463-22.787 19.906-33.847 30.214-13.274 12.372-15.324 25.39-6.45 41.045 14.055 24.803 26.937 50.457 43.1 73.831 19.568 28.292 42.197 54.46 63.203 81.776 15.648 20.345 31.65 40.494 45.989 61.745 16.209 24.025 19.144 51.665 12.447 79.225-5.564 22.903-14.971 44.907-22.663 67.312-1.697 4.945-3.812 9.81-4.913 14.882-2.093 9.65-5.24 21.123 3.03 27.868 9.46 7.71 21.925 5.875 32.95.597 46.901-22.46 98.615-85.457 91.214-151.21a606.237 606.237 0 0 1-3.567-84.66c1.374-48.573 16.79-92.206 49.915-129.732 20.878-23.651 39.201-49.591 57.934-75.04 23.55-31.993 46.4-64.5 69.415-96.88a56.534 56.534 0 0 0 7.37-13.274c4.732-13.178.273-22.968-13.711-26.134a309.53 309.53 0 0 0-49.47-7.386C37.494 878.74-16.66 862.12-68.955 837.983c-17.595-8.122-36.017-14.596-54.361-20.989-11.029-3.845-21.688-1.046-31.172 5.897" fill="none" stroke="#1d110c" stroke-linecap="round" stroke-linejoin="round" stroke-width="4.119"/><path data-name="Path 766" d="M-137.417 867.339c-12.665 20.78-24.906 41.829-38.098 62.274q-27.688 42.91-56.585 85.05c-17.05 24.837-17.795 50.448-6.676 77.292 26.621 64.274 73.27 111.194 130.052 149.368 3.21 2.16 6.267 4.682 9.75 6.286 11.296 5.21 21.243 2.24 26.146-9.24 7.513-17.586 14.12-35.567 20.478-53.599 14.392-40.823 34.618-77.825 64.97-109.667 27.09-28.418 47.908-61.622 64.786-97.022 3.538-7.419 5.45-15.673 7.51-23.69 3.726-14.491 2.97-28.14-13.826-36.678-19.046-9.684-38.534-19-58.75-25.84-34.273-11.596-69.252-21.172-103.966-31.498-15.752-4.684-30.84-3.725-44.655 6.311" fill="none" stroke="#1d110c" stroke-linecap="round" stroke-linejoin="round" stroke-width="4.119"/><g data-name="Group 130"><g data-name="Group 129" fill="none" stroke="#1d110c" stroke-linecap="round" stroke-linejoin="round" stroke-width="6"><path data-name="Path 767" d="M-117.583 907.076q-2.45 2.556-4.838 5.155"/><path data-name="Path 768" d="M-131.773 922.815c-28.656 33.705-50.96 71.821-73.15 109.853-14.62 25.057-13.301 51.07.254 77.297 15.445 29.88 35.447 54.528 66.192 69.546 22.256 10.87 36.577 4.691 48.693-9.387 15.394-17.888 26.354-39.464 40.628-58.406 20.57-27.296 43.174-53.095 63.421-80.61 13.373-18.174 25.17-37.573 26.854-61.385 1.092-15.433-4.794-27.574-16.47-35.359-31.403-20.931-66.244-34.457-104.247-36.678-7.655-.447-15.503 1.949-23.356 4.547" stroke-dasharray="24.97 24.97"/><path data-name="Path 769" d="M-109.663 904.448c-2.268.724-4.53 1.403-6.787 1.974"/></g></g><path data-name="Path 770" d="M-108.448 959.298c-25.156 26.087-48.496 53.455-62.918 87.189-7.139 16.707-8.56 33.322-2.561 50.832 6.716 19.612 28.356 36.472 48.164 32.985 9.808-1.726 20.954-7.12 27.489-14.408 19.948-22.248 38.132-46.079 56.637-69.577 10.003-12.704 20.768-25.169 28.527-39.19 13.485-24.38 5.322-45.623-19.247-57.397-26.92-12.9-51.582-8.41-74.957 8.91" fill="none" stroke="#1d110c" stroke-linecap="round" stroke-linejoin="round" stroke-width="4.119"/><path data-name="Path 771" d="M663.976 730.013c-15.229 14.04-25.48 30.746-29.363 51.294-3.046 16.113 3.882 28.68 20.049 31.777 42.864 8.208 75.551-26.96 67.114-68.67-5.407-26.723-24.592-33.574-48.745-19.629l-7.923 4.575" fill="none" stroke="#1d110c" stroke-linecap="round" stroke-linejoin="round" stroke-width="4.119"/></g></g></svg>