<svg xmlns="http://www.w3.org/2000/svg" width="460" height="498" viewBox="0 0 460 498"><defs><clipPath id="a"><path data-name="Rectangle 364" transform="translate(67 486)" fill="#fff" stroke="#707070" d="M0 0h460v498H0z"/></clipPath></defs><g data-name="Group 749"><g data-name="Mask Group 10" transform="translate(-67 -486)" clip-path="url(#a)"><g data-name="Group 706" opacity=".146"><path data-name="Path 8816" d="M338.125 225.713c-9.744 36.162-29.66 66.279-55.182 93.404-26.004 27.639-49.808 57.136-60.386 94.337-7.956 27.98-13.96 56.496-20.79 84.784-9.963 41.275-29.039 77.88-58.089 109.07-19.821 21.283-43.836 36.788-70.928 47.297-30.51 11.835-61.842 19.64-94.676 21.983-26.894 1.919-49.094-6.763-69.397-23.136-15.167-12.235-30.37-24.616-46.704-35.184-17.71-11.456-37.313-18.931-59.375-15.455-20.582 3.238-35.446 14.585-38.56 35.456-4.258 28.55-9.298 56.992-14.193 85.45-2.455 14.27-9.407 26.602-17.546 38.435-9.908 14.404-24.562 18.852-40.684 19.191-20.152.423-39.38-4.678-58.248-11.23-21.243-7.373-42.7-14.16-63.783-21.955-23.462-8.68-44.897-2.954-65.404 8.716-21.893 12.459-40.104 29.567-58.372 46.767-13.682 12.881-29.351 23.472-41.215 38.554-9.22 11.726-14.886 24.632-15.76 38.865-1.22 19.907 10.475 33.185 27.125 41.795 8.42 4.355 17.965 6.733 27.182 9.393 28.891 8.333 57.977 16.018 86.78 24.633 26.696 7.986 53.32 8.97 80.387 1.666 18.854-5.09 37.8-9.838 56.737-14.611 22.075-5.565 41.246.733 57.226 15.595 20.658 19.212 39.938 39.805 55.577 63.46 8.671 13.116 19.055 25.523 25.253 39.75 8.788 20.167 5.625 41.51-1.66 62.097-6.66 18.822-14.605 37.308-19.72 56.522-4 15.018-2.67 30.258 2.82 45.734 7.957 22.435 41.783 42.868 64.024 39.71 20.537-2.916 36.571-12.503 52.165-25.578 24.895-20.876 43.924-46.768 65.039-70.874 21.598-24.665 30.437-53.58 28.17-86.093-1.501-21.56-2.712-43.183-2.978-64.799-.227-18.488 3.196-36.273 12.576-53.017 14.076-25.119 26.477-51.166 40.547-76.292 8.778-15.677 20.472-29.696 35.681-39.558 31.65-20.525 62.084-15.372 86.902 13.635 12.894 15.07 25.414 30.483 38.858 45.048 22.945 24.858 51.73 33.24 84.476 24.57 27.867-7.38 55.176-16.901 82.776-25.328 25.011-7.636 50.183-13.63 76.718-11.308 21.013 1.844 36.764 13.096 39.405 31.894 1.782 12.681-2.748 24.57-7.093 36.266q-11.562 31.134-23.544 62.116c-.713 1.853-2.535 3.29-3.841 4.919" fill="none" stroke="#1d110c" stroke-linecap="round" stroke-linejoin="round" stroke-width="4.119"/><g data-name="Group 701"><g data-name="Group 700" fill="none" stroke="#1d110c" stroke-linecap="round" stroke-linejoin="round" stroke-width="4.119"><path data-name="Path 8817" d="M362.742 263.628q-.901 2.54-1.887 5.019"/><path data-name="Path 8818" d="M356.547 278.434c-11.66 24.079-29.267 43.993-49.193 61.994-36.906 33.347-62.21 72.98-70.69 122.283-2.606 15.155-4.02 30.531-7.248 45.55-5.537 25.793-16.822 49.138-31.508 71.256-14.26 21.48-30.632 41.117-50.775 56.804-17.973 14.003-37.65 26-59.237 34.371-35.904 13.918-72.923 22.676-111.26 25.217-28.651 1.9-53.694-7.995-77.033-23.662-17.665-11.856-35.357-23.933-54.22-33.66-9.29-4.791-21.287-6.31-32.01-6.064-17.557.402-29.472 10.584-33.72 27.52-3.96 15.78-5.99 32.017-9.267 47.974-4.506 21.945-10.664 43.251-21.33 63.366-10.459 19.729-26.678 29.165-47.835 28.084-16.167-.828-32.375-4.348-48.104-8.392-26.422-6.794-52.246-15.88-78.753-22.287-27.435-6.627-51.334 2.055-73.148 19.987a140.218 140.218 0 0 0-39.643 51.827c-9.022 20.048-4.195 31.594 12.109 43.634 21.147 15.616 43.07 30.277 65.329 44.306 24.224 15.27 51.141 15.819 78.446 9.971 17.454-3.738 34.58-9.177 52.104-12.424 24.245-4.493 45.83 2.05 62.608 20.093 18.484 19.88 36.966 39.894 53.691 61.225a344.034 344.034 0 0 1 34.664 53.562c8.512 16.412 7.428 35.082 1.633 52.772-5.123 15.638-11.475 30.882-17.042 46.384-4.877 13.576-7.709 27.14-7.503 42.034.406 29.38 34.12 51.301 62.241 43.993 18.414-4.785 33.349-16.491 47.114-29.26 22.128-20.524 40.93-43.948 58.46-68.385 14.707-20.502 15.952-43.701 14.104-67.66-2.213-28.746-7.07-57.31-4.286-86.405 1.895-19.804 7.102-38.128 16.984-55.737 17.103-30.478 34.502-60.718 56.614-87.91 18.063-22.215 41.013-37.462 69.725-41.738 31.35-4.67 55.404 8.588 75.28 31.77a562.521 562.521 0 0 0 38.857 41.524c21.438 20.403 47.944 24.565 75.46 16.23 25.177-7.627 49.254-18.863 74.122-27.627 33.988-11.979 67.883-25.017 104.359-26.786 42.169-2.046 62.04 34.178 49.65 67.873-10.685 29.06-25.845 56.534-39.35 84.556a59.853 59.853 0 0 1-4.482 7.561" stroke-dasharray="24.936 24.936"/><path data-name="Path 8819" d="M489.401 1008.542a160.366 160.366 0 0 0-3.034 4.42"/></g></g><path data-name="Path 8820" d="M385.523 296.877c-11.266 19.327-23.758 37.812-39.606 53.753-13.291 13.37-27.286 26.048-40.582 39.41-24.998 25.122-36.25 56.331-40.518 90.648-4.621 37.15-10.7 73.924-32.935 105.798-14.843 21.28-30.843 41.58-50.628 58.61-8.573 7.38-16.887 15.225-26.212 21.54-25.52 17.29-53.826 28.47-83.882 34.587-24.33 4.95-48.844 9.202-73.432 12.537-36.58 4.961-70.453-4.352-102.481-21.179-13.52-7.104-26.577-15.128-40.365-21.66-7.695-3.645-16.37-5.434-24.758-7.437-12.617-3.014-30.214 7.66-34.126 19.933-5.518 17.313-9.355 35.14-14.592 52.55-4.987 16.593-9.32 33.642-16.752 49.174-7.728 16.151-19.392 29.863-37.966 35.833a59.408 59.408 0 0 1-36.467-.065c-23.485-7.284-46.433-16.251-69.953-23.416-20.96-6.385-42.41-12.83-64.57-4.968-26.481 9.395-45.592 30.8-42.395 58.032 1.792 15.261 12.682 26.773 21.565 38.556 5.408 7.172 12.828 13.078 20.106 18.552 21.462 16.135 45.999 16.442 71.029 11.196 16.027-3.36 31.792-8.008 47.68-12.064 28.054-7.16 48.664 4.931 65.946 25.139 20.389 23.842 40.722 47.736 60.792 71.846 9.675 11.62 19.397 23.307 27.861 35.801 17.273 25.495 19.783 53.47 9.937 82.483-6.051 17.832-13.496 35.2-19.852 52.938-3.836 10.707-4.476 21.734.802 32.205 8.804 17.472 29.39 21.94 47.477 14.965 23.815-9.183 40.225-27.543 56.73-45.465a243.646 243.646 0 0 0 27.976-36.922c9.983-16.18 12.42-34.366 10.587-53.35-2.862-29.668-5.947-59.383-6.885-89.158-.969-30.747 8.536-58.374 28.113-83.4 17.268-22.064 31.511-46.465 47.019-69.882 19.382-29.267 45.369-51.197 77.728-64.07 26.66-10.603 53.456-7.172 79.41 5.248 18.486 8.846 31.691 23.619 46.112 37.026 25.706 23.9 54.328 35.068 89.434 22.762 13.838-4.853 27.854-9.197 41.624-14.232 33.726-12.33 67.295-25.084 101.042-37.365 24.46-8.9 49.822-12.396 75.534-9.073 17.358 2.243 33.117 10.226 42.873 24.693 9.578 14.197 11.14 31.307 8.35 48.462-2.935 18.05-10.374 34.424-19.477 50.13-12.432 21.447-24.63 43.043-37.739 64.076-3.709 5.951-3.64 14.796-12.117 17.54" fill="none" stroke="#1d110c" stroke-linecap="round" stroke-linejoin="round" stroke-width="6"/><path data-name="Path 8821" d="M405.565 329.56c-15.66 27.93-37.721 50.61-60.088 73.124-19.26 19.382-35.614 40.759-40.636 68.497-3.484 19.247-6.537 38.569-9.761 57.86-7.072 42.32-26.188 79.204-51.672 113.364-9.012 12.08-16.943 24.954-25.393 37.449-15.438 22.812-9.915 43.67 6.549 62.51a429.294 429.294 0 0 0 38.61 39.323c16.727 14.787 37.432 19.525 59.605 17.572 35.393-3.113 68.588-14.494 101.125-28.146q41.333-17.342 82.574-34.904c10.14-4.332 19.981-9.38 30.162-13.606 21.75-9.032 42.387-5.083 61.182 7.173 15.298 9.97 28.95 22.217 38.134 38.401 15.8 27.845 19.964 56.52 2.082 85.184-15.249 24.44-31.735 48.118-47.655 72.145-6.775 10.225-13.38 20.565-20.336 30.667-1.872 2.719-4.749 4.753-7.163 7.105" fill="none" stroke="#1d110c" stroke-linecap="round" stroke-linejoin="round" stroke-width="4.119"/><g data-name="Group 703"><g data-name="Group 702" fill="none" stroke="#1d110c" stroke-linecap="round" stroke-linejoin="round" stroke-width="4.119"><path data-name="Path 8822" d="M426.974 362.529q-1.582 2.165-3.17 4.324"/><path data-name="Path 8823" d="M417.43 375.526c-17.586 23.86-35.334 47.61-52.274 71.915-11.988 17.204-17.194 36.995-19.434 57.924-4.526 42.26-18.316 81.58-39.556 118.763-12.652 22.148-25.219 44.789-27.31 71.234-2.4 30.383 20.458 59.788 53.095 61.94 34.543 2.279 66.598-6.51 98.204-18.477 26.207-9.922 51.477-21.955 74.133-38.738 11.2-8.296 21.875-17.298 32.844-25.908 17.937-14.08 48.978-14.374 69.386-.535 20.032 13.587 35.23 31.905 50.767 50.162 13.026 15.304 21.266 32.5 28.077 50.983 10.807 29.324 4.839 56.205-12.84 80.715-15.933 22.082-33.333 43.127-50.312 64.456a66.761 66.761 0 0 1-5.066 5.577" stroke-dasharray="25.09 25.09"/><path data-name="Path 8824" d="M613.29 929.283a193.85 193.85 0 0 0-3.832 3.75"/></g></g><path data-name="Path 8825" d="M445.173 390.552c-10.61 17.045-21.442 33.956-31.769 51.168-12.786 21.307-18.906 45.015-19.712 69.243-1.037 31.213-13.891 57.67-28.591 83.978-12.108 21.663-24.06 43.351-29.313 68.042-2.746 12.896-1.818 25.237 3.13 36.848 3.968 9.313 12.798 14.24 22.52 16.943 21.89 6.083 43.178 1.197 63.935-5.4 26.252-8.343 50.045-21.258 67.367-43.607 7.809-10.08 15.13-20.536 22.48-30.955 17.694-25.083 31.924-30.44 58.779-20.556 8.39 3.088 16.758 6.237 25.04 9.589.915.37 1.196 2.267 1.77 3.458" fill="none" stroke="#1d110c" stroke-linecap="round" stroke-linejoin="round" stroke-width="6"/><path data-name="Path 8826" d="M464.441 420.222c-9.193 16.702-16.058 34.285-18.592 53.163-2.863 21.316 2.118 40.933 15.22 57.992 7.818 10.177 19.805 12.107 31.545 12.148 22.763.079 42.973 8.86 63.609 16.38.897.326 1.191 2.267 1.767 3.455" fill="none" stroke="#1d110c" stroke-linecap="round" stroke-linejoin="round" stroke-width="4.119"/><path data-name="Path 8827" d="M722.13 818.847c-6.874 23.607-21.617 43.03-34.686 63.292-1.955 3.032-6.463 4.441-9.79 6.602" fill="none" stroke="#1d110c" stroke-linecap="round" stroke-linejoin="round" stroke-width="4.119"/><path data-name="Path 8828" d="M-434.99 825.037c-14.235 18.456-12.22 36.791 2.95 54.388 11.525 13.366 24.602 20.54 42.188 20.656 15.59.106 30.247-3.256 43.745-11.016a262.99 262.99 0 0 0 23.27-15.13c7.025-5.094 7.209-10.664 3.505-18.53-6.983-14.832-21.317-20.817-34.137-28.03-9.873-5.56-21.26-8.784-32.303-11.92-17.343-4.922-33.855-2.84-48.383 9.038" fill="none" stroke="#1d110c" stroke-linecap="round" stroke-linejoin="round" stroke-width="4.119"/><path data-name="Path 8829" d="M-181.188 702.4c-12.085 13.997-15.853 31.511-20.426 48.52-7.984 29.7-20.469 56.967-41.781 79.677-7.842 8.356-16.467 15.98-24.434 24.225-9.563 9.895-10.598 19.836-3.256 31.34 11.628 18.227 22.4 37.145 35.571 54.203 15.943 20.648 34.117 39.57 51.109 59.422 12.66 14.791 25.579 29.414 37.278 44.935 13.23 17.551 16.55 38.367 12.571 59.505-3.304 17.565-9.555 34.603-14.49 51.876-1.092 3.809-2.497 7.583-3.13 11.465-1.203 7.391-3.133 16.207 3.4 20.984 7.47 5.465 16.837 3.58 24.977-.855 34.629-18.868 71.29-68.633 63.077-118.133a459.733 459.733 0 0 1-6.062-63.973c-.888-36.84 9.056-70.496 32.651-100.23 14.872-18.74 27.72-39.112 40.895-59.127 16.567-25.164 32.58-50.688 48.723-76.124a42.868 42.868 0 0 0 5.055-10.345c3.057-10.165-.705-17.406-11.425-19.246a234.736 234.736 0 0 0-37.758-3.63c-44.113-.347-85.785-10.784-126.346-26.989-13.647-5.452-27.855-9.624-42.003-13.74-8.505-2.474-16.466.068-23.373 5.702" fill="none" stroke="#1d110c" stroke-linecap="round" stroke-linejoin="round" stroke-width="4.119"/><path data-name="Path 8830" d="M-165.84 736.96c-8.769 16.241-17.202 32.666-26.38 48.673q-19.266 33.595-39.478 66.654c-11.925 19.487-11.474 38.912-1.989 58.799 22.712 47.618 59.902 81.301 104.418 107.956 2.519 1.508 4.932 3.298 7.631 4.376 8.762 3.497 16.175.853 19.434-8.036 4.99-13.614 9.286-27.493 13.382-41.404 9.278-31.487 23.128-60.312 44.85-85.63 19.388-22.597 33.835-48.57 45.212-76.048 2.385-5.758 3.506-12.085 4.748-18.238 2.248-11.118 1.132-21.429-11.926-27.228-14.808-6.578-29.935-12.862-45.518-17.237-26.416-7.421-53.286-13.286-79.985-19.728-12.114-2.923-23.504-1.597-33.567 6.552" fill="none" stroke="#1d110c" stroke-linecap="round" stroke-linejoin="round" stroke-width="4.119"/><g data-name="Group 705"><g data-name="Group 704" fill="none" stroke="#1d110c" stroke-linecap="round" stroke-linejoin="round" stroke-width="6"><path data-name="Path 8831" d="M-149.304 766.063q-1.754 2.033-3.46 4.097"/><path data-name="Path 8832" d="M-159.426 778.546c-20.364 26.662-35.741 56.413-51.042 86.098-10.075 19.555-8.044 39.207 3.26 58.53 12.883 22.014 29.006 39.89 52.887 50.041 17.286 7.35 27.887 2.101 36.505-9.04 10.948-14.157 18.392-30.933 28.45-45.844 14.495-21.488 30.59-41.924 44.83-63.564 9.407-14.294 17.57-29.454 17.9-47.553.215-11.732-4.724-20.692-13.875-26.123-24.614-14.606-51.536-23.466-80.404-23.639-5.817-.038-11.661 2.088-17.509 4.372" stroke-dasharray="24.97 24.97"/><path data-name="Path 8833" d="M-143.41 763.759a90.572 90.572 0 0 1-5.063 1.765"/></g></g><path data-name="Path 8834" d="M-140.609 804.944c-18.015 20.754-34.604 42.408-44.19 68.523-4.746 12.933-5.16 25.575.077 38.598 5.865 14.585 22.921 26.495 37.785 23.069 7.363-1.699 15.587-6.224 20.245-12.003 14.224-17.64 27.051-36.406 40.131-54.939 7.072-10.018 14.73-19.884 20.047-30.81 9.244-19 2.22-34.762-16.853-42.703-20.9-8.701-39.398-4.322-56.413 9.722" fill="none" stroke="#1d110c" stroke-linecap="round" stroke-linejoin="round" stroke-width="4.119"/><path data-name="Path 8835" d="M415.034 608.154c-10.976 11.237-18.076 24.296-20.201 40.01-1.667 12.324 4.078 21.566 16.445 23.27 32.788 4.515 56.147-23.415 48.1-54.668-5.154-20.023-19.955-24.45-37.69-12.933l-5.821 3.78" fill="none" stroke="#1d110c" stroke-linecap="round" stroke-linejoin="round" stroke-width="4.119"/></g></g></g></svg>