<svg xmlns="http://www.w3.org/2000/svg" width="1400.026" height="745.76" viewBox="0 0 1400.026 745.76"><defs><linearGradient id="a" x1=".5" x2=".5" y2="1" gradientUnits="objectBoundingBox"><stop offset="0" stop-color="#27548d"/><stop offset=".158" stop-color="#5878a0"/><stop offset=".655" stop-color="#fff"/><stop offset="1" stop-color="#f8f8f8"/></linearGradient></defs><g data-name="Group 747"><g data-name="Group 746"><path data-name="Path 127" d="M1400.025 14.772l-85.159 18.735-39.172 22.359-76.435 3.548L992.485.004l-119.571 30.85-43.08-6.135-126.993 50.017-203.348-43.442-81.673-3.955-51.048-24.255L187.79 37.9 0 14.7v731.068h1400z" fill="#375388"/><path data-name="Path 8905" d="M1804.656 1618.4l-178.969 45.18-207.181-10.1-88.288 33.292-32.523-9.632-26.964 7.75-102.878-19.477-138.446 42.426L846 1682.18l-177.048-42.3-142.109 30.82-122.164-52.295-.024 684.047 1400 .006z" transform="translate(-404.65 -1556.697)" fill="url(#a)" style="mix-blend-mode:multiply;isolation:isolate"/></g></g></svg>