<svg xmlns="http://www.w3.org/2000/svg" width="1436.562" height="774.35" viewBox="0 0 1436.562 774.35"><defs><linearGradient id="a" x1=".5" x2=".5" y2="1" gradientUnits="objectBoundingBox"><stop offset="0" stop-color="#27548d"/><stop offset=".158" stop-color="#5878a0"/><stop offset=".655" stop-color="#fff"/><stop offset="1" stop-color="#f8f8f8"/></linearGradient></defs><g data-name="Group 746"><g data-name="Group 738"><path data-name="Path 127" d="M1418.843 43.018l-85.169 19.076-39.187 22.359-76.466 3.548-206.857-59.41-119.619 30.85-43.1-6.135-127.041 50.016-203.43-43.442-81.706-3.955-51.069-24.255-115.465 24.782L18.281 0v774.35h1400.562z" fill="#375388" style="isolation:isolate"/></g><path data-name="Path 8905" d="M1823.039 1613.668l-196.837 49.9-207.268-10.1-88.325 33.286-32.537-9.63-26.975 7.749-102.921-19.473-138.5 42.418-183.486-25.651-176.135-5.675-118.493-53.714-165.08 33.252 19.334 646.294h1399.426z" transform="translate(-386.477 -1527.975)" fill="url(#a)" style="mix-blend-mode:multiply;isolation:isolate"/></g></svg>