<svg xmlns="http://www.w3.org/2000/svg" xmlns:xlink="http://www.w3.org/1999/xlink" width="1267" height="560" viewBox="0 0 1267 560">
  <defs>
    <clipPath id="clip-path">
      <rect id="Rectangle_73" data-name="Rectangle 73" width="1267" height="560" transform="translate(67 486)" fill="#fff" stroke="#707070" stroke-width="1"/>
    </clipPath>
  </defs>
  <g id="Mask_Group_5" data-name="Mask Group 5" transform="translate(-67 -486)" clip-path="url(#clip-path)">
    <g id="Group_217" data-name="Group 217" transform="translate(1580.605 -956.312) rotate(-30)" opacity="0.146">
      <path id="Path_752" data-name="Path 752" d="M-1447.376,505.265c-37.767,34.172-82.632,53.853-131.66,65.938-49.957,12.314-98.784,28.395-138.264,63.136-29.694,26.13-57.567,54.326-86.208,81.647-41.79,39.866-90.49,67.6-146.528,81.719-38.238,9.633-76.975,9.53-115.526,1.415-43.412-9.138-84.784-23.5-123.832-45.244-31.983-17.807-50.807-44.263-61.792-78.113-8.208-25.3-16.348-50.784-27.114-75.037-11.674-26.3-28.436-49.436-56.077-61.871-25.783-11.6-51.052-9.659-70,11.929-25.913,29.532-52.635,58.361-79.2,87.315-13.323,14.52-30.328,23.474-48.312,30.973-21.892,9.129-41.83,3.322-60.4-8.281-23.217-14.505-41.307-34.651-57.915-56.188-18.7-24.247-38.086-47.981-56.289-72.591-20.261-27.394-48.848-36.779-80.773-38.666-34.078-2.015-67.4,4.036-100.863,10.147-25.059,4.577-50.69,5.047-75.3,13.5-19.134,6.573-35.107,17.142-46.6,32.792-16.079,21.895-12.587,45.8-.02,68.048,6.356,11.251,15.448,21.074,23.962,30.977,26.687,31.034,54.075,61.472,80.451,92.763,24.448,29,53.981,49.934,90.137,61.7,25.185,8.2,50.224,16.849,75.27,25.467,29.2,10.046,46.339,31.52,53.533,60.429,9.3,37.372,16.014,75.3,16.327,114.024.174,21.473,2.818,43.407-.637,64.312-4.9,29.64-24.245,51.729-47.721,69.89-21.463,16.6-44.137,31.868-64.134,50.071-15.63,14.227-25.366,32.673-30.55,54.481-7.516,31.614,15.849,80.18,43.458,93.106,25.495,11.936,50.8,12.882,78.17,9.5,43.7-5.394,84.442-20.889,126.233-32.8,42.754-12.187,74.143-38.73,95.564-77.656,14.206-25.817,28.79-51.479,44.443-76.434,13.389-21.345,30.406-39.17,53.426-51.371,34.539-18.307,67.859-38.91,102.4-57.221,21.554-11.427,45.186-18.785,69.752-18.769,51.121.033,81.91,28.572,88.708,80.258,3.531,26.85,6.385,53.817,10.915,80.5,7.732,45.54,34.26,76.552,77.879,90.977,37.12,12.276,75.186,21.684,112.775,32.561,34.063,9.857,67.1,21.71,95.54,44.115,22.522,17.742,32.118,42.345,21.246,65.841-7.334,15.85-21.257,26.1-34.829,36.263q-36.122,27.06-72.608,53.634c-2.178,1.591-5.308,1.882-8,2.777" transform="translate(0 0)" fill="none" stroke="#1d110c" stroke-linecap="round" stroke-linejoin="round" stroke-width="4.119"/>
      <g id="Group_126" data-name="Group 126" transform="translate(-2923.705 525.413)">
        <g id="Group_125" data-name="Group 125" transform="translate(0 0)">
          <path id="Path_753" data-name="Path 753" d="M-318.42,619.362q-2.82,2.161-5.692,4.2" transform="translate(1794.749 -580.324)" fill="none" stroke="#1d110c" stroke-linecap="round" stroke-linejoin="round" stroke-width="4.119"/>
          <path id="Path_754" data-name="Path 754" d="M-1390.278,603.2c-31.093,18.933-65.879,28.659-101.891,34.467-66.707,10.758-124.846,37.368-170.976,87.6-14.179,15.44-27.169,32.023-41.95,46.846-25.387,25.459-55.51,43.828-88.6,58.259-32.133,14.015-65.307,24.336-99.854,27.331-30.837,2.673-62.118,1.783-92.9-4.7-51.192-10.78-99.839-28.311-145.386-53.948-34.041-19.161-55.246-49.163-70.242-84.513-11.352-26.757-22.57-53.786-36.86-78.993-7.038-12.413-19.579-23.092-31.977-30.8-20.3-12.615-41.4-9.812-58.765,6.449-16.182,15.151-30.505,32.261-46.043,48.123-21.365,21.813-44.135,41.663-71.165,56.791-26.507,14.836-51.962,13.58-75.262-3.425-17.8-12.993-33.661-29.1-48.586-45.456-25.07-27.471-47.764-57.128-73.218-84.22-26.344-28.037-59.993-35.878-98.1-31.559a189.606,189.606,0,0,0-83.494,29.915c-25.1,16.277-28.147,33.112-18.483,59.065,12.536,33.663,26.664,66.808,41.641,99.477,16.3,35.562,46.551,56.237,81.979,69.868,22.645,8.713,46.173,15.231,68.538,24.559,30.94,12.905,50.689,36.487,56.452,69.678,6.349,36.569,12.6,73.291,15.869,110.213a473.721,473.721,0,0,1-.138,87.25c-2.448,25.161-17.49,45.77-37.176,61.743-17.4,14.12-35.915,26.873-53.724,40.506-15.6,11.939-28.856,25.387-39.638,42.622-21.27,34,.916,84.254,38.354,96.818,24.514,8.227,50.185,5.925,75.31,1.533,40.387-7.059,79.131-19.92,117.175-34.893,31.912-12.56,50.5-38.24,66.115-67.1,18.737-34.619,34.341-71,59.032-102.3,16.807-21.3,36.292-38.441,60.574-51.277,42.027-22.218,84.215-43.942,129.515-58.661,37.008-12.025,74.432-12.417,110.3,4.063,39.163,18,56.755,51.117,62.248,92.51,3.407,25.679,7.578,51.381,13.544,76.568,9.326,39.37,36.44,63.885,73.948,74.821,34.32,10.006,70.056,15.051,104.865,23.522,47.575,11.577,95.828,21.869,138.686,47.008,49.546,29.063,45.387,85.411,6.349,114.829-33.668,25.371-71.258,45.591-107.37,67.672a81.1,81.1,0,0,1-10.7,5.334" transform="translate(2849.119 -550.343)" fill="none" stroke="#1d110c" stroke-linecap="round" stroke-linejoin="round" stroke-width="4.119" stroke-dasharray="24.936 24.936"/>
          <path id="Path_755" data-name="Path 755" d="M-1017.277,2236.67c-2.193.878-4.38,1.764-6.53,2.71" transform="translate(2086.939 -1247.56)" fill="none" stroke="#1d110c" stroke-linecap="round" stroke-linejoin="round" stroke-width="4.119"/>
        </g>
      </g>
      <path id="Path_756" data-name="Path 756" d="M-1319.923,676.253c-27.158,13.794-55.089,25.708-84.962,32.2-25.056,5.442-50.4,9.565-75.458,15-47.105,10.209-83.044,37.663-113.321,73.892-32.778,39.221-66.94,76.923-115.9,96.948-32.682,13.368-65.957,24.75-101.127,29.554-15.24,2.082-30.529,4.892-45.838,5.191-41.9.818-82.455-7.451-121.257-22.841-31.407-12.458-62.506-25.863-93.012-40.372-45.384-21.585-77.111-57.547-101.17-100.762-10.156-18.244-19.1-37.2-29.987-54.983-6.075-9.927-14.642-18.452-22.722-27.009-12.155-12.874-40.124-13.739-53.672-2.561-19.112,15.769-36.687,33.382-55.55,49.472-17.973,15.332-35.539,31.688-55.514,43.984-20.771,12.786-44.225,19.836-69.824,12.839-17.075-4.667-30.78-14.26-41.534-27.274-21.385-25.882-40.911-53.3-62.423-79.07-19.169-22.966-38.854-46.367-69.945-53.867-37.151-8.961-74.791,1.37-91.311,35.031-9.258,18.865-5.365,40.209-3.961,60.368.855,12.271,4.943,24.589,9.188,36.3,12.524,34.541,40.274,53.2,72.7,65.837,20.763,8.095,42.181,14.516,63.3,21.708,37.292,12.7,51.838,41.961,56.58,78.062,5.593,42.592,11.084,85.2,16.117,127.861,2.426,20.562,4.859,41.237,5.259,61.9.818,42.164-17.037,76.168-49.747,102.146-20.1,15.967-41.452,30.362-61.835,45.994-12.3,9.435-21.2,21.625-22.933,37.587-2.9,26.633,17.272,47.121,43.053,52.6,33.953,7.216,66.261-1.632,98.353-9.9a329.712,329.712,0,0,0,59.238-21.541c23.362-11.137,39.608-30.207,51.576-53.378,18.7-36.209,37.19-72.638,58.168-107.536,21.663-36.036,52.957-60.677,93.815-74.818,36.022-12.468,70.337-29.864,105.359-45.191,43.771-19.157,89.641-24.963,136.071-15.607,38.249,7.708,66.263,31.636,86.659,65.258,14.528,23.948,18.646,50.765,25.162,76.92,11.613,46.624,35.979,80.8,85.121,92.846,19.371,4.747,38.57,10.212,58,14.7,47.585,10.993,95.31,21.383,142.878,32.449,34.48,8.021,65.988,22.923,92.845,45.917,18.131,15.522,30.19,36.447,30.6,60.339.4,23.45-10.48,44.267-26.364,61.89-16.712,18.54-37.319,31.8-59.327,43.048-30.056,15.361-59.956,31.065-90.479,45.446-8.636,4.069-15.106,14.279-26.8,11.106" transform="translate(-126.146 -56.713)" fill="none" stroke="#1d110c" stroke-linecap="round" stroke-linejoin="round" stroke-width="6"/>
      <path id="Path_757" data-name="Path 757" d="M-696.352,802.65c-37.378,19.64-78.059,28.878-118.969,37.708-35.22,7.6-68.658,19.5-94.133,46.567-17.677,18.784-34.93,37.958-52.349,56.979-38.214,41.723-85.839,68.785-138.561,88.26-18.642,6.886-36.656,15.434-54.977,23.178-33.456,14.142-42.326,41.173-37.651,73.833a566.1,566.1,0,0,0,14.458,71.218c7.879,28.367,27.374,48.476,53.3,62.245,41.376,21.977,86.261,33.229,132.049,41.5q58.165,10.505,116.387,20.7c14.326,2.492,28.834,3.978,43.128,6.615,30.541,5.633,50.528,24.822,62.511,51.872,9.752,22.013,16.061,45.355,14.593,69.855-2.525,42.141-18.512,76.844-58.875,95.7-34.415,16.078-69.653,30.422-104.516,45.56-14.836,6.443-29.566,13.135-44.514,19.311-4.023,1.662-8.667,1.849-13.026,2.713" transform="translate(-751.024 -99.23)" fill="none" stroke="#1d110c" stroke-linecap="round" stroke-linejoin="round" stroke-width="4.119"/>
      <g id="Group_128" data-name="Group 128" transform="translate(-1865.772 755.255)">
        <g id="Group_127" data-name="Group 127" transform="translate(0)">
          <path id="Path_758" data-name="Path 758" d="M-319.126,894.294q-3.3,1.258-6.611,2.509" transform="translate(737.522 -894.294)" fill="none" stroke="#1d110c" stroke-linecap="round" stroke-linejoin="round" stroke-width="4.119"/>
          <path id="Path_759" data-name="Path 759" d="M-655.262,907.587c-36.584,13.759-73.269,27.276-109.459,41.989-25.614,10.413-45.584,28.564-63.094,50.1-35.355,43.486-78.844,77.065-129.039,102.932-29.9,15.407-60.057,31.42-81.359,59.165-24.476,31.877-20.316,80.812,14.233,106.632,36.565,27.327,78.334,40.629,121.876,50.094,36.107,7.848,72.7,12.69,109.806,10.4,18.345-1.131,36.615-3.421,54.93-5.064,29.949-2.688,64.489,19.28,77.119,49.24,12.4,29.413,16.046,60.586,20.119,91.935,3.415,26.28.176,51.216-5.565,76.548-9.109,40.19-35.015,65.634-72.169,80.037-33.479,12.978-67.836,23.756-101.927,35.149a88.023,88.023,0,0,1-9.608,2.531" transform="translate(1053.768 -900.068)" fill="none" stroke="#1d110c" stroke-linecap="round" stroke-linejoin="round" stroke-width="4.119" stroke-dasharray="25.09 25.09"/>
          <path id="Path_760" data-name="Path 760" d="M-674.713,2239c-2.318.443-4.634.89-6.931,1.395" transform="translate(892.123 -1478.412)" fill="none" stroke="#1d110c" stroke-linecap="round" stroke-linejoin="round" stroke-width="4.119"/>
        </g>
      </g>
      <path id="Path_761" data-name="Path 761" d="M-575.25,972.192c-23.974,11.231-48.1,22.155-71.882,33.771-29.443,14.382-53.238,36.2-71.529,62.42-23.565,33.775-56.781,53.805-91.933,72.338-28.948,15.262-57.742,30.662-81.285,54.19-12.3,12.289-20.136,26.6-23,43-2.3,13.15,3.927,24.94,12.737,34.91,19.84,22.45,46.892,32.334,74.584,39.948,35.026,9.63,70.614,12.431,105.822.155,15.874-5.534,31.481-11.845,47.093-18.088,37.582-15.029,57.166-10.738,79.767,19.481,7.06,9.44,14.054,18.933,20.806,28.588.746,1.067-.306,3.366-.524,5.095" transform="translate(-872.126 -192.587)" fill="none" stroke="#1d110c" stroke-linecap="round" stroke-linejoin="round" stroke-width="6"/>
      <path id="Path_762" data-name="Path 762" d="M-378.489,1054.672c-22.162,11.872-42.383,26.384-58.744,45.441-18.474,21.518-27.055,46.789-24.816,75.066,1.336,16.87,13.207,27.613,26.16,36.088,25.118,16.436,41.16,40.662,58.582,63.8.757,1.007-.311,3.364-.529,5.092" transform="translate(-1068.887 -229.327)" fill="none" stroke="#1d110c" stroke-linecap="round" stroke-linejoin="round" stroke-width="4.119"/>
      <path id="Path_763" data-name="Path 763" d="M-392.685,2161.275c-24.556,21.171-54.81,32.062-83.814,45.084-4.34,1.948-10.337.271-15.568.271" transform="translate(-1055.999 -689.396)" fill="none" stroke="#1d110c" stroke-linecap="round" stroke-linejoin="round" stroke-width="4.119"/>
      <path id="Path_764" data-name="Path 764" d="M-2614.8,703.786c-29,10.188-39.937,31.914-35.8,62.268,3.146,23.058,12.456,40.384,31.82,53.148,17.166,11.314,35.79,18.122,56.291,19.235a346.8,346.8,0,0,0,36.6-.02c11.427-.59,15.631-6.616,17.185-17.978,2.93-21.417-8.625-38.331-17.622-55.518-6.927-13.239-17.2-24.983-27.168-36.383-15.645-17.9-35.4-27.454-60-24.752" transform="translate(-160.452 -91.386)" fill="none" stroke="#1d110c" stroke-linecap="round" stroke-linejoin="round" stroke-width="4.119"/>
      <path id="Path_765" data-name="Path 765" d="M-2176.035,786.394c-23.417,6.8-40.162,23.463-57.435,38.988-30.161,27.112-63.55,48.3-103.43,58.109-14.674,3.609-29.687,5.845-44.419,9.242-17.682,4.077-25.966,14.326-26.109,32.321-.229,28.508-1.9,57.166.411,85.49,2.8,34.285,9.313,68.262,13.847,102.421,3.379,25.444,7.163,50.894,8.955,76.467,2.025,28.911-9.253,54.316-28.833,74.835-16.27,17.052-35.419,31.405-53.283,46.962-3.942,3.434-8.206,6.589-11.695,10.432-6.638,7.311-15.1,15.673-11.31,25.649,4.337,11.408,16.05,16.051,28.236,16.992,51.848,4,128.132-24.7,154.6-85.345a606.237,606.237,0,0,1,39.24-75.1c25.476-41.379,60.644-71.458,108.094-87.394,29.906-10.044,58.745-23.347,87.692-36.019,36.392-15.932,72.433-32.659,108.555-49.194a56.534,56.534,0,0,0,13.02-7.81c10.687-9.047,11.72-19.755,1.193-29.489a309.53,309.53,0,0,0-39.15-31.132c-48.536-32.065-87.126-73.536-120.344-120.588-11.177-15.831-23.894-30.648-36.584-45.357-7.629-8.844-18.259-11.75-29.944-10.479" transform="translate(-217.507 -113.106)" fill="none" stroke="#1d110c" stroke-linecap="round" stroke-linejoin="round" stroke-width="4.119"/>
      <path id="Path_766" data-name="Path 766" d="M-2104.12,873.455c-21.358,11.663-42.484,23.772-64.131,34.882q-45.434,23.317-91.529,45.362c-27.184,12.986-40.635,34.793-44.428,63.6-9.082,68.973,7.857,132.932,37.945,194.382,1.7,3.476,3.086,7.189,5.3,10.319,7.178,10.161,17.278,12.561,27.263,5.071,15.3-11.473,30.013-23.742,44.534-36.179,32.876-28.158,68.893-50.09,111.1-62.489,37.67-11.066,72.3-29.413,104.617-51.631,6.773-4.656,12.556-10.848,18.349-16.761,10.472-10.687,16.641-22.885,6.365-38.677-11.652-17.91-23.871-35.722-37.958-51.753-23.884-27.179-49.389-52.962-74.289-79.261-11.3-11.933-24.846-18.646-41.828-16.862" transform="translate(-295.556 -153.138)" fill="none" stroke="#1d110c" stroke-linecap="round" stroke-linejoin="round" stroke-width="4.119"/>
      <g id="Group_130" data-name="Group 130" transform="translate(-2579.499 764.647)">
        <g id="Group_129" data-name="Group 129" transform="translate(0 0)">
          <path id="Path_767" data-name="Path 767" d="M-1958.395,951.572q-3.4.989-6.767,2.046" transform="translate(2135.526 -951.572)" fill="none" stroke="#1d110c" stroke-linecap="round" stroke-linejoin="round" stroke-width="6"/>
          <path id="Path_768" data-name="Path 768" d="M-2109.39,960.507c-41.67,14.861-80.043,36.719-118.276,58.56-25.19,14.391-37.055,37.578-38.429,67.068-1.564,33.6,3.434,64.947,22.551,93.325,13.839,20.542,29.331,22.351,46.863,16.217,22.275-7.794,42.555-21,64.388-30.267,31.462-13.354,63.937-24.394,95.229-38.1,20.668-9.052,40.584-19.954,53.949-39.734,8.662-12.819,9.635-26.277,3.416-38.856-16.731-33.829-40.141-62.963-71.942-83.888-6.406-4.215-14.4-6.064-22.5-7.74" transform="translate(2266.363 -953.971)" fill="none" stroke="#1d110c" stroke-linecap="round" stroke-linejoin="round" stroke-width="6" stroke-dasharray="24.97 24.97"/>
          <path id="Path_769" data-name="Path 769" d="M-1944.019,953.256c-2.326-.506-4.625-1.05-6.865-1.684" transform="translate(2129.323 -951.572)" fill="none" stroke="#1d110c" stroke-linecap="round" stroke-linejoin="round" stroke-width="6"/>
        </g>
      </g>
      <path id="Path_770" data-name="Path 770" d="M-2082.766,1038.105c-34.829,10.014-68.726,22.046-98.083,44.049-14.536,10.9-24.074,24.578-27.634,42.741-3.989,20.343,6.321,45.764,25.219,52.649,9.357,3.409,21.707,4.31,31.01,1.266,28.4-9.293,56.063-20.839,83.838-31.937,15.015-6,30.57-11.412,44.3-19.676,23.868-14.371,27.42-36.849,12.03-59.33-16.863-24.633-40.466-33.075-69.369-29.763" transform="translate(-337.802 -223.665)" fill="none" stroke="#1d110c" stroke-linecap="round" stroke-linejoin="round" stroke-width="4.119"/>
      <path id="Path_771" data-name="Path 771" d="M-694.607,1359.388c-20.208,4.544-37.439,13.886-51.076,29.74-10.694,12.432-10.978,26.779,1.475,37.544,33.017,28.541,78.909,14.428,92.457-25.913,8.679-25.846-4.51-41.371-32.4-41.371H-693.3" transform="translate(-942.38 -357.302)" fill="none" stroke="#1d110c" stroke-linecap="round" stroke-linejoin="round" stroke-width="4.119"/>
    </g>
  </g>
</svg>
