<svg xmlns="http://www.w3.org/2000/svg" xmlns:xlink="http://www.w3.org/1999/xlink" width="460" height="498" viewBox="0 0 460 498">
  <defs>
    <clipPath id="clip-path">
      <rect id="Rectangle_364" data-name="Rectangle 364" width="460" height="498" transform="translate(67 486)" fill="#fff" stroke="#707070" stroke-width="1"/>
    </clipPath>
  </defs>
  <g id="Group_749" data-name="Group 749" transform="translate(-72.016 -1157)">
    <g id="Mask_Group_10" data-name="Mask Group 10" transform="translate(5.016 671)" clip-path="url(#clip-path)">
      <g id="Group_706" data-name="Group 706" transform="translate(1624.486 -1208.188) rotate(-33)" opacity="0.146">
        <path id="Path_8816" data-name="Path 8816" d="M-1859.791,501.968c-27.868,25.021-60.974,39.432-97.151,48.281-36.863,9.017-72.892,20.791-102.024,46.229-21.911,19.133-42.478,39.778-63.612,59.783-30.836,29.19-66.771,49.5-108.122,59.837-28.215,7.053-56.8,6.978-85.245,1.036-32.033-6.691-62.562-17.21-91.375-33.128-23.6-13.038-37.49-32.411-45.6-57.2-6.057-18.522-12.063-37.185-20.007-54.944-8.614-19.254-20.983-36.2-41.379-45.3-19.025-8.494-37.671-7.073-51.649,8.735-19.121,21.624-38.839,42.733-58.443,63.933-9.831,10.632-22.378,17.188-35.649,22.679-16.154,6.684-30.866,2.433-44.572-6.063-17.132-10.621-30.48-25.372-42.735-41.142-13.8-17.754-28.1-35.132-41.535-53.152-14.95-20.058-36.045-26.93-59.6-28.312-25.146-1.475-49.737,2.955-74.426,7.43-18.49,3.352-37.4,3.7-55.564,9.887-14.119,4.813-25.9,12.551-34.385,24.011-11.864,16.032-9.288,33.537-.014,49.826,4.69,8.239,11.4,15.431,17.681,22.682,19.692,22.724,39.9,45.011,59.364,67.923,18.04,21.237,39.832,36.563,66.511,45.179,18.584,6,37.06,12.337,55.541,18.647,21.545,7.356,34.193,23.079,39.5,44.247,6.862,27.364,11.816,55.135,12.048,83.491.129,15.723,2.08,31.784-.47,47.091-3.614,21.7-17.891,37.877-35.213,51.175-15.837,12.158-32.568,23.335-47.323,36.663-11.534,10.417-18.718,23.923-22.543,39.892-5.546,23.149,11.695,58.709,32.067,68.174,18.813,8.739,37.481,9.432,57.681,6.959,32.248-3.949,62.309-15.3,93.146-24.017,31.548-8.923,54.709-28.359,70.516-56.861,10.483-18.9,21.244-37.694,32.794-55.967,9.879-15.629,22.436-28.681,39.422-37.615,25.486-13.4,50.073-28.491,75.558-41.9,15.9-8.367,33.342-13.755,51.469-13.743,37.722.024,60.44,20.921,65.456,58.766,2.606,19.66,4.712,39.406,8.054,58.943,5.705,33.345,25.281,56.053,57.466,66.615,27.39,8.989,55.479,15.877,83.216,23.842,25.135,7.218,49.511,15.9,70.5,32.3,16.619,12.991,23.7,31.006,15.677,48.21-5.412,11.606-15.686,19.109-25.7,26.552q-26.654,19.814-53.577,39.272c-1.607,1.165-3.917,1.378-5.9,2.033" transform="translate(0 0)" fill="none" stroke="#1d110c" stroke-linecap="round" stroke-linejoin="round" stroke-width="4.119"/>
        <g id="Group_701" data-name="Group 701" transform="translate(-2947.174 517.569)">
          <g id="Group_700" data-name="Group 700" transform="translate(0 0)">
            <path id="Path_8817" data-name="Path 8817" d="M-319.8,619.362q-2.139,1.639-4.316,3.181" transform="translate(1407.178 -589.757)" fill="none" stroke="#1d110c" stroke-linecap="round" stroke-linejoin="round" stroke-width="4.119"/>
            <path id="Path_8818" data-name="Path 8818" d="M-1775,588.991c-22.893,13.844-48.506,20.956-75.021,25.2-49.115,7.867-91.922,27.324-125.886,64.055-10.44,11.29-20,23.416-30.887,34.254-18.692,18.616-40.871,32.048-65.234,42.6-23.659,10.248-48.084,17.8-73.521,19.985-22.7,1.955-45.736,1.3-68.4-3.436-37.692-7.883-73.509-20.7-107.045-39.448-25.064-14.011-40.677-35.949-51.718-61.8-8.358-19.565-16.618-39.329-27.14-57.761-5.182-9.077-14.416-16.885-23.544-22.519-14.943-9.225-30.481-7.175-43.268,4.715-11.915,11.079-22.461,23.59-33.9,35.188-15.731,15.95-32.5,30.465-52.4,41.526-19.517,10.849-38.259,9.93-55.414-2.5-13.108-9.5-24.784-21.279-35.773-33.238-18.459-20.088-35.168-41.773-53.909-61.583-19.4-20.5-44.172-26.235-72.233-23.076a140.218,140.218,0,0,0-61.475,21.874c-18.485,11.9-20.725,24.212-13.609,43.189,9.23,24.615,19.632,48.851,30.659,72.739,12,26,34.275,41.121,60.36,51.088,16.674,6.371,34,11.137,50.464,17.958,22.781,9.437,37.321,26.68,41.564,50.95,4.675,26.74,9.275,53.591,11.684,80.59a344.034,344.034,0,0,1-.1,63.8c-1.8,18.4-12.878,33.468-27.372,45.148-12.814,10.325-26.444,19.65-39.556,29.619-11.484,8.73-21.246,18.563-29.185,31.166-15.661,24.861.674,61.608,28.239,70.795,18.049,6.016,36.95,4.332,55.449,1.121,29.736-5.162,58.263-14.566,86.274-25.514,23.5-9.184,37.18-27.962,48.679-49.062,13.8-25.314,25.284-51.916,43.465-74.8,12.375-15.577,26.722-28.109,44.6-37.495,30.944-16.246,62.006-32.131,95.36-42.894,27.248-8.793,54.8-9.08,81.209,2.971,28.835,13.159,41.788,37.378,45.832,67.645a562.521,562.521,0,0,0,9.972,55.988c6.867,28.788,26.83,46.714,54.447,54.71,25.269,7.316,51.581,11.006,77.21,17.2,35.029,8.465,70.557,15.991,102.112,34.373,36.48,21.251,33.417,62.454,4.674,83.965-24.789,18.552-52.466,33.337-79.055,49.483a59.853,59.853,0,0,1-7.877,3.9" transform="translate(2849.119 -550.343)" fill="none" stroke="#1d110c" stroke-linecap="round" stroke-linejoin="round" stroke-width="4.119" stroke-dasharray="24.936 24.936"/>
            <path id="Path_8819" data-name="Path 8819" d="M-1018.855,2236.67c-1.663.666-3.322,1.338-4.952,2.055" transform="translate(1806.749 -1513.344)" fill="none" stroke="#1d110c" stroke-linecap="round" stroke-linejoin="round" stroke-width="4.119"/>
          </g>
        </g>
        <path id="Path_8820" data-name="Path 8820" d="M-1692.962,662.023c-19.975,10.073-40.519,18.772-62.492,23.51-18.429,3.974-37.071,6.985-55.5,10.95-34.647,7.454-61.081,27.5-83.351,53.956-24.109,28.639-49.236,56.17-85.244,70.792-24.038,9.762-48.513,18.073-74.381,21.58-11.209,1.52-22.455,3.572-33.715,3.79-30.819.6-60.648-5.44-89.187-16.679-23.1-9.1-45.975-18.885-68.413-29.48-33.381-15.762-56.717-42.021-74.413-73.577-7.47-13.322-14.05-27.162-22.056-40.149-4.468-7.249-10.77-13.474-16.713-19.722-8.94-9.4-29.512-10.032-39.477-1.87-14.057,11.515-26.984,24.376-40.858,36.125-13.22,11.2-26.14,23.139-40.832,32.117-15.278,9.337-32.528,14.484-51.357,9.375a59.408,59.408,0,0,1-30.549-19.916c-15.729-18.9-30.091-38.919-45.914-57.738-14.1-16.77-28.579-33.858-51.447-39.334-27.326-6.543-55.011,1-67.162,25.58-6.809,13.775-3.946,29.361-2.913,44.081.629,8.96,3.635,17.955,6.758,26.509,9.212,25.222,29.623,38.843,53.472,48.075,15.272,5.911,31.025,10.6,46.558,15.851,27.429,9.274,38.128,30.64,41.616,57,4.114,31.1,8.153,62.214,11.854,93.365,1.785,15.015,3.574,30.112,3.868,45.2.6,30.789-12.531,55.618-36.59,74.588-14.787,11.659-30.489,22.17-45.481,33.585-9.049,6.89-15.591,15.79-16.868,27.446-2.132,19.448,12.7,34.408,31.667,38.409,24.974,5.269,48.737-1.192,72.341-7.233a243.646,243.646,0,0,0,43.571-15.729c17.184-8.132,29.133-22.057,37.936-38.977,13.757-26.44,27.354-53.041,42.784-78.524,15.934-26.314,38.952-44.307,69-54.633,26.5-9.1,51.735-21.807,77.494-33,32.195-13.989,65.934-18.228,100.084-11.4,28.133,5.628,48.738,23.1,63.74,47.651,10.686,17.487,13.715,37.069,18.507,56.167,8.542,34.045,26.464,59,62.609,67.8,14.248,3.466,28.369,7.457,42.66,10.734,35,8.027,70.1,15.614,105.091,23.694,25.361,5.857,48.536,16.739,68.29,33.529,13.336,11.335,22.205,26.614,22.508,44.06.3,17.123-7.708,32.324-19.392,45.192-12.292,13.538-27.449,23.22-43.637,31.434-22.107,11.216-44.1,22.684-66.549,33.185-6.352,2.971-11.111,10.427-19.715,8.11" transform="translate(-165.837 -74.557)" fill="none" stroke="#1d110c" stroke-linecap="round" stroke-linejoin="round" stroke-width="6"/>
        <path id="Path_8821" data-name="Path 8821" d="M-816.644,802.65c-28.346,14.894-59.2,21.9-90.22,28.6-26.709,5.765-52.067,14.786-71.386,35.314-13.405,14.245-26.489,28.786-39.7,43.21-28.979,31.64-65.1,52.163-105.078,66.932-14.137,5.222-27.8,11.7-41.692,17.577-25.372,10.724-32.1,31.224-28.553,55.992a429.294,429.294,0,0,0,10.964,54.008c5.975,21.512,20.759,36.762,40.419,47.2,31.378,16.666,65.416,25.2,100.14,31.472q44.11,7.967,88.262,15.7c10.864,1.89,21.866,3.016,32.706,5.016,23.161,4.272,38.318,18.823,47.405,39.338,7.4,16.694,12.18,34.4,11.067,52.975-1.914,31.958-14.039,58.275-44.648,72.575-26.1,12.193-52.822,23.071-79.26,34.551-11.251,4.886-22.421,9.961-33.757,14.644-3.051,1.261-6.572,1.4-9.878,2.058" transform="translate(-1043.147 -176.857)" fill="none" stroke="#1d110c" stroke-linecap="round" stroke-linejoin="round" stroke-width="4.119"/>
        <g id="Group_703" data-name="Group 703" transform="translate(-2177.083 665.102)">
          <g id="Group_702" data-name="Group 702" transform="translate(0)">
            <path id="Path_8822" data-name="Path 8822" d="M-320.724,894.294q-2.506.954-5.013,1.9" transform="translate(638.015 -894.294)" fill="none" stroke="#1d110c" stroke-linecap="round" stroke-linejoin="round" stroke-width="4.119"/>
            <path id="Path_8823" data-name="Path 8823" d="M-751.56,907.587c-27.744,10.434-55.564,20.685-83.008,31.843-19.424,7.9-34.569,21.662-47.847,37.995-26.812,32.977-59.792,58.442-97.857,78.059-22.673,11.684-45.544,23.828-61.7,44.868-18.561,24.174-15.406,61.284,10.793,80.865,27.729,20.724,59.4,30.811,92.425,37.989,27.382,5.952,55.129,9.624,83.271,7.888,13.912-.858,27.767-2.594,41.656-3.841,22.712-2.039,48.905,14.621,58.483,37.342,9.4,22.305,12.169,45.945,15.257,69.719,2.589,19.93.134,38.84-4.22,58.05-6.908,30.479-26.554,49.773-54.73,60.7-25.389,9.842-51.444,18.015-77.3,26.655a66.761,66.761,0,0,1-7.286,1.919" transform="translate(1053.768 -901.885)" fill="none" stroke="#1d110c" stroke-linecap="round" stroke-linejoin="round" stroke-width="4.119" stroke-dasharray="25.09 25.09"/>
            <path id="Path_8824" data-name="Path 8824" d="M-676.388,2239c-1.758.336-3.514.675-5.256,1.058" transform="translate(841.261 -1662.205)" fill="none" stroke="#1d110c" stroke-linecap="round" stroke-linejoin="round" stroke-width="4.119"/>
          </g>
        </g>
        <path id="Path_8825" data-name="Path 8825" d="M-657.437,972.192c-18.181,8.517-36.477,16.8-54.512,25.611-22.328,10.906-40.373,27.455-54.244,47.336-17.87,25.613-43.06,40.8-69.717,54.858-21.953,11.574-43.789,23.253-61.642,41.1-9.327,9.32-15.27,20.175-17.444,32.608-1.744,9.972,2.978,18.913,9.659,26.474,15.046,17.025,35.561,24.521,56.561,30.294,26.562,7.3,53.55,9.427,80.25.118,12.038-4.2,23.874-8.982,35.713-13.717,28.5-11.4,43.352-8.143,60.491,14.773,5.354,7.159,10.658,14.358,15.778,21.68.565.809-.232,2.553-.4,3.864" transform="translate(-1202.354 -273.676)" fill="none" stroke="#1d110c" stroke-linecap="round" stroke-linejoin="round" stroke-width="6"/>
        <path id="Path_8826" data-name="Path 8826" d="M-398.765,1054.672c-16.807,9-32.141,20.008-44.548,34.46-14.01,16.318-20.517,35.483-18.819,56.926,1.013,12.793,10.015,20.94,19.839,27.368,19.048,12.464,31.214,30.836,44.426,48.381.574.763-.236,2.551-.4,3.861" transform="translate(-1461.026 -320.778)" fill="none" stroke="#1d110c" stroke-linecap="round" stroke-linejoin="round" stroke-width="4.119"/>
        <path id="Path_8827" data-name="Path 8827" d="M-416.7,2161.275c-18.622,16.055-41.565,24.314-63.561,34.19-3.291,1.478-7.839.205-11.806.205" transform="translate(-1444.082 -952.719)" fill="none" stroke="#1d110c" stroke-linecap="round" stroke-linejoin="round" stroke-width="4.119"/>
        <path id="Path_8828" data-name="Path 8828" d="M-2623.657,703.676c-21.99,7.726-30.286,24.2-27.147,47.221,2.386,17.486,9.446,30.625,24.131,40.3,13.018,8.58,27.141,13.743,42.688,14.587a262.99,262.99,0,0,0,27.756-.015c8.666-.447,11.854-5.018,13.032-13.633,2.222-16.242-6.541-29.068-13.363-42.1-5.253-10.04-13.047-18.946-20.6-27.591-11.864-13.573-26.847-20.82-45.5-18.771" transform="translate(-210.939 -120.141)" fill="none" stroke="#1d110c" stroke-linecap="round" stroke-linejoin="round" stroke-width="4.119"/>
        <path id="Path_8829" data-name="Path 8829" d="M-2251.971,786.325c-17.758,5.156-30.457,17.793-43.556,29.567-22.872,20.56-48.193,36.628-78.436,44.067-11.128,2.737-22.513,4.433-33.686,7.009-13.409,3.091-19.691,10.864-19.8,24.511-.174,21.619-1.443,43.352.312,64.832,2.125,26,7.062,51.767,10.5,77.671,2.562,19.3,5.432,38.6,6.791,57.989,1.536,21.925-7.017,41.19-21.866,56.752-12.338,12.931-26.86,23.816-40.407,35.614-2.99,2.6-6.223,5-8.869,7.911-5.034,5.544-11.454,11.886-8.577,19.451,3.289,8.652,12.171,12.172,21.413,12.886,39.319,3.036,97.169-18.733,117.241-64.721a459.733,459.733,0,0,1,29.758-56.954c19.32-31.38,45.99-54.19,81.973-66.276,22.679-7.617,44.549-17.705,66.5-27.315,27.6-12.082,54.93-24.767,82.323-37.307a42.868,42.868,0,0,0,9.874-5.923c8.1-6.86,8.888-14.982.9-22.363a234.736,234.736,0,0,0-29.69-23.609c-36.807-24.317-66.072-55.766-91.263-91.448-8.476-12.005-18.12-23.242-27.743-34.4-5.786-6.707-13.847-8.911-22.708-7.947" transform="translate(-302.976 -167.411)" fill="none" stroke="#1d110c" stroke-linecap="round" stroke-linejoin="round" stroke-width="4.119"/>
        <path id="Path_8830" data-name="Path 8830" d="M-2153.063,873.386c-16.2,8.845-32.218,18.027-48.634,26.453q-34.455,17.682-69.411,34.4c-20.615,9.848-30.816,26.385-33.692,48.229-6.887,52.306,5.958,100.81,28.775,147.41,1.291,2.636,2.34,5.452,4.017,7.826,5.443,7.705,13.1,9.525,20.675,3.845,11.6-8.7,22.761-18,33.773-27.436,24.931-21.354,52.245-37.986,84.252-47.388,28.567-8.392,54.829-22.306,79.337-39.155,5.136-3.531,9.522-8.226,13.915-12.71,7.941-8.1,12.62-17.355,4.827-29.331-8.836-13.582-18.1-27.09-28.786-39.247-18.113-20.611-37.454-40.164-56.337-60.108-8.568-9.049-18.842-14.14-31.72-12.787" transform="translate(-407.834 -217.129)" fill="none" stroke="#1d110c" stroke-linecap="round" stroke-linejoin="round" stroke-width="4.119"/>
        <g id="Group_705" data-name="Group 705" transform="translate(-2697.208 689.671)">
          <g id="Group_704" data-name="Group 704" transform="translate(0 0)">
            <path id="Path_8831" data-name="Path 8831" d="M-1960.03,951.572q-2.578.75-5.132,1.552" transform="translate(2094.358 -951.572)" fill="none" stroke="#1d110c" stroke-linecap="round" stroke-linejoin="round" stroke-width="6"/>
            <path id="Path_8832" data-name="Path 8832" d="M-2147.322,959.682c-31.6,11.27-60.7,27.846-89.7,44.409-19.1,10.913-28.1,28.5-29.143,50.862-1.186,25.48,2.6,49.253,17.1,70.773,10.494,15.578,22.243,16.95,35.539,12.3,16.892-5.91,32.272-15.925,48.829-22.953,23.859-10.127,48.487-18.5,72.217-28.893,15.674-6.865,30.777-15.133,40.912-30.132,6.569-9.722,7.307-19.927,2.59-29.466-12.688-25.655-30.441-47.748-54.558-63.616-4.858-3.2-10.917-4.6-17.065-5.869" transform="translate(2266.363 -954.726)" fill="none" stroke="#1d110c" stroke-linecap="round" stroke-linejoin="round" stroke-width="6" stroke-dasharray="24.97 24.97"/>
            <path id="Path_8833" data-name="Path 8833" d="M-1945.678,952.849c-1.764-.384-3.508-.8-5.207-1.277" transform="translate(2086.204 -951.572)" fill="none" stroke="#1d110c" stroke-linecap="round" stroke-linejoin="round" stroke-width="6"/>
          </g>
        </g>
        <path id="Path_8834" data-name="Path 8834" d="M-2113.351,1037.939c-26.413,7.594-52.119,16.719-74.382,33.4-11.024,8.262-18.256,18.639-20.957,32.413-3.025,15.427,4.793,34.705,19.125,39.927,7.1,2.585,16.462,3.269,23.516.96,21.537-7.048,42.515-15.8,63.579-24.219,11.387-4.55,23.183-8.654,33.593-14.921,18.1-10.9,20.794-27.945,9.123-44.993-12.788-18.68-30.688-25.082-52.606-22.571" transform="translate(-463.412 -310.924)" fill="none" stroke="#1d110c" stroke-linecap="round" stroke-linejoin="round" stroke-width="4.119"/>
        <path id="Path_8835" data-name="Path 8835" d="M-708.87,1359.388c-15.325,3.446-28.392,10.531-38.733,22.553-8.11,9.428-8.325,20.308,1.119,28.472,25.039,21.644,59.841,10.942,70.115-19.651,6.582-19.6-3.42-31.374-24.567-31.374h-6.941" transform="translate(-1294.713 -494.79)" fill="none" stroke="#1d110c" stroke-linecap="round" stroke-linejoin="round" stroke-width="4.119"/>
      </g>
    </g>
  </g>
</svg>
