<svg xmlns="http://www.w3.org/2000/svg" xmlns:xlink="http://www.w3.org/1999/xlink" width="1400.026" height="745.76" viewBox="0 0 1400.026 745.76">
  <defs>
    <linearGradient id="linear-gradient" x1="0.5" x2="0.5" y2="1" gradientUnits="objectBoundingBox">
      <stop offset="0" stop-color="#27548d"/>
      <stop offset="0.158" stop-color="#5878a0"/>
      <stop offset="0.655" stop-color="#fff"/>
      <stop offset="1" stop-color="#f8f8f8"/>
    </linearGradient>
  </defs>
  <g id="Group_747" data-name="Group 747" transform="translate(0.002 -538.299)">
    <g id="Group_746" data-name="Group 746">
      <path id="Path_127" data-name="Path 127" d="M1786.5,1480.5l-85.159,18.735-39.172,22.359-76.435,3.548-206.774-59.41-119.571,30.85-43.08-6.135-126.993,50.017-203.348-43.442-81.673-3.955-51.048-24.255-178.982,34.816-187.79-23.2,0,731.068h1400Z" transform="translate(-386.477 -927.429)" fill="#375388"/>
      <path id="Path_8905" data-name="Path 8905" d="M1804.656,1618.4l-178.969,45.18-207.181-10.1-88.288,33.292-32.523-9.632-26.964,7.75-102.878-19.477-138.446,42.426L846,1682.18l-177.048-42.3L526.843,1670.7l-122.164-52.295-.024,684.047,1400,.006Z" transform="translate(-404.652 -1018.398)" fill="url(#linear-gradient)" style="mix-blend-mode: multiply;isolation: isolate"/>
    </g>
  </g>
</svg>
