<svg xmlns="http://www.w3.org/2000/svg" xmlns:xlink="http://www.w3.org/1999/xlink" width="1436.562" height="774.35" viewBox="0 0 1436.562 774.35">
  <defs>
    <linearGradient id="linear-gradient" x1="0.5" x2="0.5" y2="1" gradientUnits="objectBoundingBox">
      <stop offset="0" stop-color="#27548d"/>
      <stop offset="0.158" stop-color="#5878a0"/>
      <stop offset="0.655" stop-color="#fff"/>
      <stop offset="1" stop-color="#f8f8f8"/>
    </linearGradient>
  </defs>
  <g id="Group_746" data-name="Group 746" transform="translate(18.281 -509.709)">
    <g id="Group_738" data-name="Group 738" transform="translate(-377 363.025)" style="isolation: isolate">
      <path id="Path_127" data-name="Path 127" d="M1787.039,1480.156l-85.169,19.076-39.187,22.359-76.466,3.548-206.857-59.41-119.619,30.85-43.1-6.135L1089.6,1540.46l-203.43-43.442-81.706-3.955-51.069-24.255L637.93,1493.59l-251.453-56.452v774.35H1787.039Z" transform="translate(-9.477 -1290.454)" fill="#375388"/>
    </g>
    <path id="Path_8905" data-name="Path 8905" d="M1823.039,1613.668l-196.837,49.9-207.268-10.1-88.325,33.286-32.537-9.63-26.975,7.749L1168.176,1665.4l-138.5,42.418-183.486-25.651-176.135-5.675-118.493-53.714-165.08,33.252,19.334,646.294H1805.242Z" transform="translate(-404.758 -1018.266)" fill="url(#linear-gradient)" style="mix-blend-mode: multiply;isolation: isolate"/>
  </g>
</svg>
